<svg width="96" height="29" viewBox="0 0 96 29" fill="none" xmlns="http://www.w3.org/2000/svg">
<path d="M40.0386 23V10.096H43.6124V13.7418L43.1087 12.6864C43.4925 11.775 44.1081 11.0874 44.9556 10.6237C45.8031 10.144 46.8344 9.90414 48.0497 9.90414V13.358C47.8898 13.342 47.7458 13.334 47.6179 13.334C47.49 13.318 47.3541 13.31 47.2102 13.31C46.1868 13.31 45.3553 13.6058 44.7157 14.1975C44.0921 14.7731 43.7803 15.6766 43.7803 16.9078V23H40.0386Z" fill="black"/>
<path d="M16.5257 9.99414C18.1407 9.99414 19.4199 10.4738 20.3633 11.4332C21.3228 12.3767 21.8025 13.7998 21.8025 15.7026V23.09H18.0608V16.2782C18.0608 15.2549 17.8449 14.4953 17.4132 13.9997C16.9974 13.488 16.3978 13.2321 15.6143 13.2321C14.7348 13.2321 14.0393 13.5199 13.5276 14.0956C13.0159 14.6552 12.7601 15.4947 12.7601 16.614V23.09H9.0184V16.2782C9.0184 14.2475 8.2029 13.2321 6.57192 13.2321C5.70845 13.2321 5.02088 13.5199 4.5092 14.0956C3.99752 14.6552 3.74168 15.4947 3.74168 16.614V23.09H0V10.186L3.57378 11.6731C4.05348 11.1294 4.63712 10.7137 5.32469 10.4259C6.02825 10.1381 6.79578 9.99414 7.62726 9.99414C8.5387 9.99414 9.36218 10.178 10.0977 10.5458C10.8333 10.8976 11.4249 11.4173 11.8726 12.1048C12.4003 11.4332 13.0639 10.9136 13.8634 10.5458C14.6789 10.178 15.5663 9.99414 16.5257 9.99414Z" fill="black"/>
<path d="M71.1339 27.845C69.9187 27.845 68.7434 27.6931 67.6081 27.3893C66.4888 27.1015 65.5534 26.6617 64.8019 26.0701L66.2889 23.3838C66.8326 23.8315 67.5202 24.1833 68.3517 24.4391C69.1991 24.7109 70.0306 24.8469 70.8461 24.8469C72.1733 24.8469 73.1327 24.551 73.7243 23.9594C74.3319 23.3678 74.6358 22.4883 74.6358 21.321V19.3783L74.8756 16.1403L74.8276 12.8783V10.096H78.3774V20.8413C78.3774 23.2399 77.7538 25.0068 76.5066 26.142C75.2594 27.2773 73.4685 27.845 71.1339 27.845ZM70.5583 22.3764C69.359 22.3764 68.2717 22.1205 67.2963 21.6089C66.3369 21.0812 65.5614 20.3536 64.9698 19.4262C64.3941 18.4828 64.1063 17.3875 64.1063 16.1403C64.1063 14.877 64.3941 13.7817 64.9698 12.8543C65.5614 11.9109 66.3369 11.1833 67.2963 10.6717C68.2717 10.16 69.359 9.90414 70.5583 9.90414C71.6456 9.90414 72.605 10.128 73.4365 10.5757C74.268 11.0075 74.9156 11.687 75.3793 12.6145C75.843 13.5259 76.0749 14.7012 76.0749 16.1403C76.0749 17.5634 75.843 18.7386 75.3793 19.6661C74.9156 20.5775 74.268 21.2571 73.4365 21.7048C72.605 22.1525 71.6456 22.3764 70.5583 22.3764ZM71.3018 19.3063C71.9574 19.3063 72.5411 19.1784 73.0527 18.9225C73.5644 18.6507 73.9642 18.2749 74.252 17.7952C74.5398 17.3155 74.6837 16.7639 74.6837 16.1403C74.6837 15.5007 74.5398 14.949 74.252 14.4853C73.9642 14.0056 73.5644 13.6378 73.0527 13.382C72.5411 13.1101 71.9574 12.9742 71.3018 12.9742C70.6462 12.9742 70.0626 13.1101 69.5509 13.382C69.0392 13.6378 68.6315 14.0056 68.3277 14.4853C68.0399 14.949 67.8959 15.5007 67.8959 16.1403C67.8959 16.7639 68.0399 17.3155 68.3277 17.7952C68.6315 18.2749 69.0392 18.6507 69.5509 18.9225C70.0626 19.1784 70.6462 19.3063 71.3018 19.3063Z" fill="black"/>
<path d="M30.7948 23.1919C29.4197 23.1919 28.1964 22.9041 27.1251 22.3284C26.0698 21.7528 25.2303 20.9693 24.6067 19.9779C23.999 18.9705 23.6952 17.8272 23.6952 16.548C23.6952 15.2528 23.999 14.1095 24.6067 13.1181C25.2303 12.1108 26.0698 11.3273 27.1251 10.7676C28.1964 10.192 29.4197 9.90414 30.7948 9.90414C32.154 9.90414 33.3692 10.192 34.4406 10.7676C35.5119 11.3273 36.3514 12.1028 36.959 13.0942C37.5666 14.0855 37.8704 15.2368 37.8704 16.548C37.8704 17.8272 37.5666 18.9705 36.959 19.9779C36.3514 20.9693 35.5119 21.7528 34.4406 22.3284C33.3692 22.9041 32.154 23.1919 30.7948 23.1919ZM30.7948 20.1218C31.4184 20.1218 31.9781 19.9779 32.4738 19.6901C32.9695 19.4022 33.3612 18.9945 33.649 18.4668C33.9369 17.9232 34.0808 17.2836 34.0808 16.548C34.0808 15.7965 33.9369 15.1569 33.649 14.6292C33.3612 14.1015 32.9695 13.6938 32.4738 13.406C31.9781 13.1181 31.4184 12.9742 30.7948 12.9742C30.1712 12.9742 29.6116 13.1181 29.1159 13.406C28.6202 13.6938 28.2204 14.1015 27.9166 14.6292C27.6288 15.1569 27.4849 15.7965 27.4849 16.548C27.4849 17.2836 27.6288 17.9232 27.9166 18.4668C28.2204 18.9945 28.6202 19.4022 29.1159 19.6901C29.6116 19.9779 30.1712 20.1218 30.7948 20.1218Z" fill="#0D98BA"/>
<path d="M54.4401 23.1919C53.2248 23.1919 52.1295 22.92 51.1541 22.3764C50.1787 21.8167 49.4032 21.0412 48.8276 20.0498C48.2679 19.0584 47.9881 17.8912 47.9881 16.548C47.9881 15.1889 48.2679 14.0136 48.8276 13.0222C49.4032 12.0308 50.1787 11.2633 51.1541 10.7196C52.1295 10.176 53.2248 9.90414 54.4401 9.90414C55.5274 9.90414 56.4788 10.144 57.2943 10.6237C58.1098 11.1034 58.7414 11.8309 59.1891 12.8063C59.6369 13.7817 59.8607 15.029 59.8607 16.548C59.8607 18.0511 59.6448 19.2983 59.2131 20.2897C58.7814 21.2651 58.1578 21.9926 57.3423 22.4723C56.5428 22.952 55.5754 23.1919 54.4401 23.1919ZM55.0877 20.1218C55.6953 20.1218 56.247 19.9779 56.7427 19.6901C57.2383 19.4022 57.6301 18.9945 57.9179 18.4668C58.2217 17.9232 58.3736 17.2836 58.3736 16.548C58.3736 15.7965 58.2217 15.1569 57.9179 14.6292C57.6301 14.1015 57.2383 13.6938 56.7427 13.406C56.247 13.1181 55.6953 12.9742 55.0877 12.9742C54.4641 12.9742 53.9044 13.1181 53.4087 13.406C52.913 13.6938 52.5133 14.1015 52.2095 14.6292C51.9216 15.1569 51.7777 15.7965 51.7777 16.548C51.7777 17.2836 51.9216 17.9232 52.2095 18.4668C52.5133 18.9945 52.913 19.4022 53.4087 19.6901C53.9044 19.9779 54.4641 20.1218 55.0877 20.1218ZM58.4696 23V20.3616L58.5415 16.524L58.3017 12.7104V10.096H62.0434V23H58.4696Z" fill="#CB0031"/>
<path d="M87.9589 23.1919C86.5838 23.1919 85.3606 22.9041 84.2892 22.3284C83.2339 21.7528 82.3944 20.9693 81.7708 19.9779C81.1632 18.9705 80.8594 17.8272 80.8594 16.548C80.8594 15.2528 81.1632 14.1095 81.7708 13.1181C82.3944 12.1108 83.2339 11.3273 84.2892 10.7676C85.3606 10.192 86.5838 9.90414 87.9589 9.90414C89.3181 9.90414 90.5333 10.192 91.6047 10.7676C92.676 11.3273 93.5155 12.1028 94.1231 13.0942C94.7307 14.0855 95.0345 15.2368 95.0345 16.548C95.0345 17.8272 94.7307 18.9705 94.1231 19.9779C93.5155 20.9693 92.676 21.7528 91.6047 22.3284C90.5333 22.9041 89.3181 23.1919 87.9589 23.1919ZM87.9589 20.1218C88.5826 20.1218 89.1422 19.9779 89.6379 19.6901C90.1336 19.4022 90.5253 18.9945 90.8132 18.4668C91.101 17.9232 91.2449 17.2836 91.2449 16.548C91.2449 15.7965 91.101 15.1569 90.8132 14.6292C90.5253 14.1015 90.1336 13.6938 89.6379 13.406C89.1422 13.1181 88.5826 12.9742 87.9589 12.9742C87.3353 12.9742 86.7757 13.1181 86.28 13.406C85.7843 13.6938 85.3845 14.1015 85.0807 14.6292C84.7929 15.1569 84.649 15.7965 84.649 16.548C84.649 17.2836 84.7929 17.9232 85.0807 18.4668C85.3845 18.9945 85.7843 19.4022 86.28 19.6901C86.7757 19.9779 87.3353 20.1218 87.9589 20.1218Z" fill="#EB9412"/>
</svg>
